<svg xmlns="http://www.w3.org/2000/svg" viewBox="0 0 64 64" fill="none">
  <rect width="64" height="64" rx="12" fill="#020617"/>
  <path d="M32 7 12 15.8v15.6c0 12.1 8.5 23.3 20 25.8 11.5-2.5 20-13.7 20-25.8V15.8L32 7Z" fill="#0f172a" stroke="#164e63" stroke-width="2"/>
  <path d="M32 12 17 18.4v12.7c0 8.9 6.3 17.2 15 19.2 8.7-2 15-10.3 15-19.2V18.4L32 12Z" fill="#083344"/>
  <rect x="22" y="24" width="4" height="18" rx="1" fill="#22d3ee"/>
  <path d="M32.5 42h-4l7-18h4L46.5 42h-4l-1.4-3.7h-7.2L32.5 42Zm2.6-7h4.8l-2.4-6.8L35.1 35Z" fill="#22d3ee"/>
  <rect x="22" y="20" width="20" height="1.5" rx=".75" fill="#67e8f9" opacity=".55"/>
</svg>
