<svg xmlns="http://www.w3.org/2000/svg" viewBox="0 0 40 40" fill="none">
  <!-- Background shield shape -->
  <path
    d="M20 2L4 9v12c0 9.55 6.8 18.48 16 20.5 9.2-2.02 16-10.95 16-20.5V9L20 2z"
    fill="#0f172a"
    stroke="#334155"
    stroke-width="1"
  />
  <!-- Inner glow -->
  <path
    d="M20 5L7 10.5v10.5c0 7.65 5.44 14.78 13 16.4 7.56-1.62 13-8.75 13-16.4V10.5L20 5z"
    fill="#0c4a6e"
    opacity="0.3"
  />
  <!-- Stylized "IA" letterform -->
  <g fill="#06b6d4">
    <!-- I bar -->
    <rect x="12" y="14" width="3" height="14" rx="0.5"/>
    <!-- A shape -->
    <path d="M22 28h-3l5.5-14h3L33 28h-3l-1.2-3h-5.6L22 28zm2.4-6h3.2l-1.6-4.5L24.4 22z"/>
  </g>
  <!-- Accent line -->
  <rect x="12" y="12" width="16" height="1" fill="#06b6d4" opacity="0.5"/>
</svg>
